# xmcd CD database file
#
# Track frame offsets:
#	151
#	13241
#	26641
#	40103
#	54611
#	66314
#	78619
#	89961
#	104705
#	118764
#	132320
#	144690
#	158008
#	172069
#	184490
#	197851
#	212631
#	241175
#	253780
#
# Disc length: 3780 seconds
#
# Revision: 0
# Processed by: cddbd v1.5.1PL0 Copyright (c) Steve Scherf et al.
# Submitted via: CDex 1.50
#
DISCID=2a0ec213
DTITLE=James, Harry - The Jazz Sides 1937-1947
DYEAR=1900
DGENRE=Jazz
TTITLE0=Life Goes to a Party
TTITLE1=One O'Clock Jump
TTITLE2=Boo Woo
TTITLE3=Woo Woo
TTITLE4=Home James
TTITLE5=Jesse
TTITLE6=Ciribiribin
TTITLE7=Two O'Clock Jump
TTITLE8=King Porter Jump
TTITLE9=Flash
TTITLE10=Sleepy Time Girl
TTITLE11=Jeffries' Blues
TTITLE12=Record Session
TTITLE13=B-19
TTITLE14=James Session
TTITLE15=Beaumont Ride, The
TTITLE16=Moten Swing - Parts 1 and 2
TTITLE17=Cottontail
TTITLE18=Tuxedo Junction - Parts 1 and 2
EXTD=
EXTT0=
EXTT1=
EXTT2=
EXTT3=
EXTT4=
EXTT5=
EXTT6=
EXTT7=
EXTT8=
EXTT9=
EXTT10=
EXTT11=
EXTT12=
EXTT13=
EXTT14=
EXTT15=
EXTT16=
EXTT17=
EXTT18=
PLAYORDER=
